<?xml version="1.0" encoding="utf-8"?>
<!-- Generator: Adobe Illustrator 22.0.1, SVG Export Plug-In . SVG Version: 6.00 Build 0)  -->
<svg version="1.1" id="Layer_1" xmlns="http://www.w3.org/2000/svg" xmlns:xlink="http://www.w3.org/1999/xlink" x="0px" y="0px"
	 viewBox="0 0 772.9 183" style="enable-background:new 0 0 772.9 183;" xml:space="preserve">
<style type="text/css">
	.st0{fill:#04505C;}
	.st1{fill:none;}
</style>
<title>CIT-Bank-Logo--navigation-header</title>
<path class="st0" d="M356.5,142.8H397c7,0,12.4-1.8,16.2-5.4c3.9-3.6,5.8-8.7,5.8-15.4c0-6.5-1.9-11.5-5.8-14.9s-9.2-5.2-16.2-5.2
	h-40.5V142.8z M356.5,85.4h37.4c5,0.2,9.9-1.5,13.8-4.7c3.7-3.1,5.5-7.6,5.5-13.5c0-6.6-1.7-11.3-5-14c-3.3-2.7-8.1-4-14.3-4h-37.4
	V85.4z M333.5,30.5h63.6c11.7,0,21.2,2.7,28.2,8.1C432.4,44,436,52.1,436,63c0.2,6-1.5,11.9-4.9,16.9c-3.5,4.9-8.3,8.7-13.8,10.9
	v0.4c8.1,1.7,14.2,5.5,18.3,11.5c4.1,5.9,6.2,13.4,6.2,22.3c0,4.9-1,9.8-2.9,14.4c-1.9,4.5-4.8,8.5-8.6,11.6
	c-4.5,3.5-9.5,6.1-15,7.7c-7.1,2-14.5,3-21.8,2.8h-60V30.5z"/>
<path class="st0" d="M513.8,114c-3.5,2.2-7.6,3.5-11.7,3.8c-4.7,0.4-9.3,1.1-14,1.9c-2.2,0.4-4.3,0.9-6.4,1.6
	c-2,0.6-3.8,1.5-5.5,2.7c-1.6,1.2-2.9,2.8-3.8,4.6c-1,2.2-1.5,4.5-1.4,6.9c-0.1,2.1,0.6,4.2,2,5.9c1.3,1.6,3,2.9,4.9,3.8
	c2,1,4.1,1.6,6.2,1.9c2,0.4,4.1,0.5,6.2,0.6c2.5,0,5-0.3,7.5-0.9c2.7-0.6,5.3-1.7,7.6-3.1c2.4-1.4,4.4-3.4,6-5.6
	c1.7-2.5,2.5-5.4,2.4-8.4L513.8,114z M534.7,140.4c-0.1,1.9,0.2,3.8,1,5.5c0.9,1.2,2.5,1.8,4,1.6h2.2c1,0,2-0.1,3-0.4v14.5
	c-0.7,0.2-1.7,0.5-2.8,0.8s-2.4,0.6-3.6,0.8s-2.4,0.4-3.7,0.6c-1,0.1-2.1,0.2-3.1,0.2c-3.7,0.2-7.5-0.7-10.7-2.6
	c-2.8-1.7-4.7-4.7-5.5-9c-4.3,4.1-9.6,7.2-15.3,8.8c-5.7,1.8-11.6,2.7-17.5,2.8c-4.2,0-8.3-0.6-12.3-1.7c-3.7-1.1-7.2-2.8-10.4-5.1
	c-3-2.3-5.5-5.2-7.2-8.6c-1.8-3.8-2.7-8-2.6-12.2c-0.2-5,0.9-9.9,3.2-14.3c2-3.6,5-6.5,8.5-8.6c3.6-2.1,7.6-3.6,11.8-4.4
	c4.4-0.9,8.7-1.6,13.1-2.1c3.6-0.7,7.2-1.2,10.8-1.6c3.1-0.2,6.1-0.8,9.1-1.6c2.3-0.6,4.5-1.7,6.3-3.4c1.7-1.9,2.5-4.4,2.3-6.9
	c0.1-2.4-0.6-4.7-1.9-6.6c-1.2-1.7-2.9-3.1-4.8-4c-2-0.9-4.1-1.6-6.3-1.8c-2.2-0.3-4.4-0.5-6.6-0.5c-5.1-0.2-10.2,1.1-14.6,3.7
	c-3.8,2.5-6.2,6.8-6.4,11.4h-20.9c0.1-5.4,1.6-10.6,4.3-15.3c2.5-4,5.9-7.3,9.9-9.7c4.1-2.5,8.7-4.2,13.5-5.1
	c5.1-1,10.2-1.4,15.4-1.4c4.6,0,9.2,0.4,13.8,1.4c4.3,0.9,8.4,2.5,12.2,4.8c3.5,2.1,6.5,5,8.7,8.5c2.3,3.8,3.4,8.2,3.3,12.7
	L534.7,140.4z"/>
<path class="st0" d="M552.9,66.7h19.8v13.9L573,81c3.1-5.1,7.4-9.4,12.5-12.4c5.2-3,11.1-4.6,17.1-4.5c10.3,0,18.5,2.7,24.6,8.1
	c6,5.4,9,13.5,9,24.2v65.1h-20.9v-59.6c-0.3-7.4-1.8-12.9-4.8-16.2s-7.5-5-13.8-5c-3.3-0.1-6.6,0.6-9.6,1.9c-2.7,1.2-5.2,3-7.2,5.3
	c-2,2.4-3.6,5.1-4.6,8c-1.1,3.1-1.7,6.4-1.6,9.7v55.9h-20.9L552.9,66.7z"/>
<polygon class="st0" points="654.4,30.5 654.4,161.5 675.3,161.5 675.3,127.6 687.7,115.5 716.7,161.5 742.2,161.5 702.4,101.5 
	738.7,66.7 713,66.7 675.3,105 675.3,30.5 "/>
<polygon class="st0" points="272.7,161.9 272.7,77.7 304.8,77.7 304.8,30.5 189,30.5 189,77.7 220.9,77.7 220.9,161.9 "/>
<rect x="137.4" y="77.7" class="st0" width="51.7" height="84.3"/>
<polygon class="st0" points="137.4,20 137.4,77.8 200.6,20 "/>
<path class="st0" d="M69.8,164.6c31.8,0,59.7-21.6,67.5-52.4H88.7c-9.5,10.4-25.6,11.2-36.1,1.7s-11.2-25.6-1.7-36.1
	c9.5-10.4,25.6-11.2,36.1-1.7c0.6,0.5,1.2,1.1,1.7,1.7h48.6c-9.4-37.3-47.4-59.9-84.7-50.5S-7.3,74.7,2.1,112
	C10,143,37.9,164.6,69.8,164.6"/>
<path class="st0" d="M746.5,148.4L746.5,148.4c0.3-7.3,6.4-13,13.7-12.7c6.9,0.2,12.4,5.8,12.7,12.6v0.1c-0.3,7.3-6.4,13-13.7,12.7
	C752.3,160.8,746.8,155.3,746.5,148.4z M771.5,148.4L771.5,148.4c0.1-6.5-5.1-11.8-11.5-11.9c0,0,0,0,0,0h-0.3
	c-6.5,0-11.8,5.2-11.9,11.7c0,0,0,0,0,0l0,0c0,0.1,0,0.1,0,0.2l0,0c0.2,6.5,5.6,11.7,12.2,11.5C766.3,159.7,771.3,154.6,771.5,148.4
	z M754.3,141h6.2c1.6-0.1,3.1,0.4,4.2,1.5c0.8,0.7,1.2,1.8,1.1,2.8l0,0c0.1,2-1.3,3.7-3.2,4.1l3.7,5.2h-3.2l-3.3-4.8h-2.8v4.8h-2.8
	V141z M760.3,147.7c1.7,0,2.7-0.8,2.7-2.2l0,0c0-1.4-1-2.1-2.7-2.1H757v4.4L760.3,147.7z"/>
<rect class="st1" width="772.9" height="183"/>
</svg>
