<?xml version="1.0" encoding="UTF-8" standalone="no"?>
<!-- Generator: Adobe Illustrator 22.1.0, SVG Export Plug-In . SVG Version: 6.00 Build 0)  -->

<svg
   xmlns:dc="http://purl.org/dc/elements/1.1/"
   xmlns:cc="http://creativecommons.org/ns#"
   xmlns:rdf="http://www.w3.org/1999/02/22-rdf-syntax-ns#"
   xmlns:svg="http://www.w3.org/2000/svg"
   xmlns="http://www.w3.org/2000/svg"
   xmlns:sodipodi="http://sodipodi.sourceforge.net/DTD/sodipodi-0.dtd"
   xmlns:inkscape="http://www.inkscape.org/namespaces/inkscape"
   version="1.1"
   id="Layer_1"
   inkscape:version="0.92.2 5c3e80d, 2017-08-06"
   sodipodi:docname="Dunkin'.svg"
   x="0px"
   y="0px"
   viewBox="0 0 641.192 115.61599"
   xml:space="preserve"
   width="641.19202"
   height="115.616"><metadata
     id="metadata22"><rdf:RDF><cc:Work
         rdf:about=""><dc:format>image/svg+xml</dc:format><dc:type
           rdf:resource="http://purl.org/dc/dcmitype/StillImage" /><dc:title></dc:title></cc:Work></rdf:RDF></metadata><defs
     id="defs20" /><style
     type="text/css"
     id="style2">
	.st0{fill:#FE6D01;}
	.st1{fill:#F40290;}
</style><sodipodi:namedview
     bordercolor="#666666"
     borderopacity="1"
     gridtolerance="10"
     guidetolerance="10"
     id="namedview45"
     inkscape:current-layer="Layer_1"
     inkscape:cx="314.50621"
     inkscape:cy="86.046799"
     inkscape:pageopacity="0"
     inkscape:pageshadow="2"
     inkscape:window-height="933"
     inkscape:window-maximized="1"
     inkscape:window-width="1680"
     inkscape:window-x="0"
     inkscape:window-y="1"
     inkscape:zoom="1.8266925"
     objecttolerance="10"
     pagecolor="#ffffff"
     showgrid="false" /><path
     class="st0"
     d="m 258.9,63.901003 c -0.4,0.6 -0.2,1.3 -0.2,1.9 0,9.7 0,19.3 0,29 0,2.7 -0.3,5.299997 -1.1,7.899997 -2.4,8.3 -9.4,13.3 -18.1,12.7 -10.7,-0.7 -16.8,-7.2 -17.5,-18.499997 -0.1,-1.1 -0.1,-2.3 -0.1,-3.4 0,-24.9 0,-49.7 0,-74.6 0,-7.8 2.9,-13.9000003 10.3,-16.9000003 7.6,-3.1 14.8,-2.00000002 21,3.6 3.4,3 5.8,7.0000003 8.5,10.6000003 8.3,11.3 17.1,22.3 24.9,34 0.8,1.2 1.5,2.4 2.7,3.5 0,-0.6 0,-1.3 0,-1.9 0,-10.3 0,-20.7 0,-31 0,-4.3 0.7,-8.4 2.9,-12.1000003 4,-6.8 10.3,-9.00000001 17.7,-8.20000001 8.7,0.80000001 14.5,6.70000001 15.7,15.50000031 0.3,2 0.4,4 0.4,6 0,24.9 0,49.9 0,74.8 0,7.699997 -2.7,13.799997 -9.9,16.999997 -7.7,3.3 -15.1,2.1 -21.4,-3.6 -3.9,-3.5 -6.8,-8 -10.1,-12.199997 -8.7,-11.1 -18,-21.8 -25.4,-33.9 0,-0.1 -0.1,-0.1 -0.3,-0.2 z"
     id="path5"
     inkscape:connector-curvature="0"
     style="fill:#fe6d01" /><path
     class="st0"
     d="m 528.6,64.101003 c 0,0.7 0,1.4 0,2.1 0,10.5 -0.1,20.9 -0.2,31.4 0,2.999997 -0.9,5.799997 -2.2,8.399997 -3.1,6.3 -9.7,9.9 -17,9.3 -10.4,-0.8 -16.6,-7.3 -17.3,-17.899997 0,-0.6 -0.1,-1.2 -0.1,-1.8 0,-26.2 -0.1,-52.4 0,-78.6 0,-6.7 3.2,-11.8000003 9.2,-14.7000003 6.8,-3.19999996 13.4,-2.70000001 19.8,1.4 1.9,1.2 3.5,2.8 4.8,4.5 10.1,13.6000003 20.5,26.9000003 30.1,40.9000003 1.1,1.6 2.1,3.2 3.4,5.3 0,-1.2 0,-1.9 0,-2.6 0,-10.5 0,-21.1 0,-31.6 0,-5 1.1,-9.8 4.4,-13.8000003 4.9,-5.90000001 11.5,-6.90000001 18.5,-5.60000001 6.6,1.30000001 10.7,5.70000001 12.6,12.00000031 0.9,3 1.1,6 1.1,9.1 0,25 0,50 0,75 0,7.599997 -2.8,13.699997 -9.9,16.799997 -7.4,3.2 -14.5,2.2 -20.8,-3 -1,-0.8 -2,-1.8 -2.8,-2.8 -10,-12.899997 -20.7,-25.299997 -30,-38.699997 -1.2,-1.7 -2.3,-3.4 -3.4,-5.1 0.1,-0.1 0,-0.1 -0.2,0 z"
     id="path7"
     inkscape:connector-curvature="0"
     style="fill:#fe6d01" /><path
     class="st0"
     d="m 35.4,2.6010027 c 6.5,0.1 13.9,-0.5 21.2,0.9 20.3,3.8 35.9,14.0000003 43,33.9000003 7.3,20.5 4.9,40 -9.6,57 C 81.1,104.901 69.1,110.401 55.7,112.301 c -12.4,1.8 -24.9,0.6 -37.3,0.8 -0.6,0 -1.2,-0.2 -1.8,-0.3 -9.8,-1.7 -16.6,-9.7 -16.6,-19.599997 0,-23.5 0,-47.1 0,-70.6 0,-11.1 8.5,-19.8000003 19.7,-20.0000003 4.9,-0.1 9.9,0 15.7,0 z m 1.3,55.3000003 c 0,6.1 0,12.1 0,18.2 0,0.9 -0.1,1.7 1.3,1.7 3.9,-0.1 7.7,0.2 11.6,-0.3 10.2,-1.2 17,-8.9 17.1,-19.5 0.1,-10.4 -6.7,-18.4 -16.9,-19.7 -3.8,-0.5 -7.6,-0.1 -11.4,-0.3 -1.4,-0.1 -1.8,0.4 -1.8,1.8 0.1,6 0.1,12.1 0.1,18.1 z"
     id="path9"
     inkscape:connector-curvature="0"
     style="fill:#fe6d01" /><path
     class="st0"
     d="m 375.3,34.801003 c 6.6,-8.5 13.4,-16.6 19.8,-25.0000003 3.7,-4.8 8.1,-8.2 14.3,-8.90000001 10.8,-1.1 21.2,8.90000001 20.4,19.70000031 -0.4,5 -2.4,9.2 -5.5,13 -6.3,7.5 -12.7,14.9 -19.1,22.3 -0.9,1.1 -0.9,1.7 0,2.7 6.9,7.6 13.6,15.4 20.4,23 3.7,4.2 5.8,8.9 5.6,14.5 C 430.8,108.101 418.7,117.401 407.6,114.101 c -3.8,-1.1 -6.9,-3.4 -9.4,-6.5 -7.2,-8.799997 -14.6,-17.499997 -21.6,-26.499997 -0.3,-0.4 -0.6,-0.8 -1,-1.3 -0.7,0.4 -0.4,1 -0.4,1.4 0,5.3 0.1,10.5 -0.1,15.8 -0.3,10.699997 -7.9,18.199997 -18.3,18.099997 -10.5,0 -18.3,-7.5 -18.3,-18.099997 -0.1,-26.3 -0.1,-52.7 0,-79 0.1,-10.6000003 8,-18.10000031 18.4,-18.00000032 10.4,0.10000001 17.9,7.40000002 18.2,18.00000032 0.3,5.8 0.2,11.3 0.2,16.8 z"
     id="path11"
     inkscape:connector-curvature="0"
     style="fill:#fe6d01" /><path
     class="st0"
     d="m 209.5,47.301003 c -0.1,7.2 0.3,16.2 -0.2,25.1 -1.2,22.1 -17.7,39.599997 -39.7,42.399997 -9.8,1.2 -19.3,0.7 -28.5,-3.1 -16.4,-6.7 -25.4,-19.199997 -27.9,-36.499997 -0.3,-2.2 -0.4,-4.5 -0.5,-6.8 0,-16.5 -0.1,-32.9 0,-49.4 0.1,-11.0000003 7.8,-18.80000031 18.4,-18.70000031 10.7,0.1 18.3,7.90000001 18.3,19.10000031 0,15.5 0,31.1 0,46.6 0,5.2 1.8,9.4 6.6,11.8 7.5,3.8 15.9,-1.5 16.7,-10.2 0.1,-1.1 0.1,-2.3 0.1,-3.4 0,-15.1 0,-30.3 0,-45.4 0,-9.9000003 6.7,-17.4000003 16.4,-18.40000031 9.6,-1 17.8,4.90000001 19.8,14.40000031 0.3,1.5 0.4,3 0.4,4.6 0.1,8.7 0.1,17.4 0.1,27.9 z"
     id="path13"
     inkscape:connector-curvature="0"
     style="fill:#fe6d01" /><path
     class="st0"
     d="m 442.7,57.701003 c 0,-13.1 -0.1,-26.1 0,-39.2 0.1,-7.6 3.3,-13.5000003 10.4,-16.5000003 7.3,-3.1 14.4,-2.30000001 20.5,3.1 3.7,3.2 5.6,7.6000003 5.6,12.4000003 0.1,26.9 0.2,53.7 0,80.6 -0.1,10.099997 -8.4,17.599997 -18.4,17.299997 -10.5,-0.3 -18,-7.6 -18.1,-17.899997 -0.1,-13.3 0,-26.5 0,-39.8 z"
     id="path15"
     inkscape:connector-curvature="0"
     style="fill:#fe6d01" /><path
     class="st1"
     d="m 606.9,26.801003 c -0.1,-4.5 0,-8.9 1,-13.3 2,-9.2000003 9.7,-14.40000026 19.2,-12.90000031 9.1,1.40000001 14.9,8.90000001 14,18.10000031 -0.8,7.6 -2.9,14.9 -5.9,21.9 -1.8,4.1 -4.5,7.4 -8.9,8.9 -7.2,2.4 -14.7,-1.1 -17.4,-8.3 -1.8,-4.6 -1.9,-9.5 -2,-14.4 z"
     id="path17"
     inkscape:connector-curvature="0"
     style="fill:#f40290" /></svg>