<svg xmlns="http://www.w3.org/2000/svg" width="240" height="55" viewBox="0 0 240 55"><path d="M110.03 42.294c-3.967 0-5.547-1.847-5.547-5.323V25.68c0-4.83-2.172-6.892-5.382-6.892-2.925 0-4.947 2.063-4.947 6.078v17.428h-1.956c-3.21 0-5.328-1.847-5.328-5.323V25.68c0-4.83-2.23-6.892-5.441-6.892-2.826 0-4.947 2.223-4.947 6.243v17.263h-1.956a5.007 5.007 0 01-5.276-5.323V25.625c0-7.98 4.187-13.3 13.05-13.3a10.808 10.808 0 018.918 4.56 9.979 9.979 0 018.41-4.56c6.743 0 12.18 4.07 12.18 12.379v17.59zm19.928.487h-1.463c-6.947 0-11.745-3.906-11.745-9.28 0-5.213 3.806-9.178 14.571-9.178h2.56v-.365c0-4.125-1.956-5.374-6.307-5.374-5.273 0-8.209 2.008-9.3 3.366h-.271v-2.348c0-3.256 2.925-7.166 10.655-7.166 6.527 0 12.4 3.041 12.4 13.143v6.728c-.006 6.188-4.573 10.474-11.1 10.474zm3.971-13.245h-2.611c-5.547 0-7.123 1.3-7.123 3.691 0 2.282 1.85 3.651 5.057 3.651s4.677-1.522 4.677-4.509zm28.626-9.438a10.571 10.571 0 00-4.242-.869c-3.262 0-5.057 1.789-5.057 6.242v16.83h-2.011c-3.262 0-5.328-1.628-5.328-4.669v-13.47c0-5.863 3.1-11.456 10.82-11.456 4.512 0 6.088 2.555 6.088 4.779v2.614zm14.249 22.515c-6.037 0-9.3-3.207-9.3-9.141V3.192h2.066c3.657 0 5.221 2.121 5.221 4.892v24.689c0 2.925 1.521 3.858 4.947 3.858h1.96v1.58c.003 3.151-1.683 4.402-4.894 4.402zm20.572-11.829h-4.786c.545 3.691 3.916 6.027 8.213 6.027 3.046 0 6.633-.6 8.973-2.771h.271v2.282c0 3.746-2.56 6.623-10.6 6.623a14.452 14.452 0 01-14.41-14.713c0-9.773 5.982-15.906 14.355-15.906 6.092 0 11.745 4.344 11.745 11.347-.005 5.374-4.082 7.111-13.761 7.111zm1.36-12.376a6.264 6.264 0 00-6.147 6.243l-.055.975h3.265c6.9 0 8.483-.759 8.483-2.822.002-2.932-2.174-4.396-5.545-4.396zm21.208 33.401c-2.72 0-5.119-1.8-5.119-4.512v-1.415l4.132-.271c2.666-.165 3.591-1.251 5.167-5.382-3.861-5.818-9.408-20.392-10.385-27.3h3.858a4.253 4.253 0 014.242 3.422 63.118 63.118 0 005.876 16.911 82.684 82.684 0 005.707-20.328h3.152c2.34 0 3.426 1.031 3.426 3.422 0 3.1-5.119 16.476-6.468 19.632-5.43 12.83-8.312 15.821-13.588 15.821zM27.12 0A27.086 27.086 0 008.175 46.474a11.323 11.323 0 01-3.448 5.977c-3.839 3.836 8.172 2.923 12.918.033A27.1 27.1 0 1027.12 0z" fill="#f2685f"/><path d="M27.997 37.972a2.613 2.613 0 01-2.87-2.837v-6.947c0-2.772-1.51-3.876-3.368-3.876-1.324 0-3.057 1.009-3.057 4v9.642h-1.389a2.575 2.575 0 01-2.9-2.837V15.291h1.309c2.015 0 2.991 1.134 2.991 2.709v4.849a4.814 4.814 0 013.686-2.267c4.388 0 6.947 2.614 6.947 7.434v9.957zm8.089-18.209a2.49 2.49 0 01-2.443-2.49 2.461 2.461 0 012.457-2.457 2.49 2.49 0 012.49 2.457 2.516 2.516 0 01-2.504 2.49zm2.995 18.367c-3.291 0-5.072-1.858-5.072-5.291V21.336h1.2c1.89 0 3.024 1.006 3.024 3.148v7.942c0 1.7.731 2.238 2.585 2.238h.786v.914c-.004 1.828-.728 2.552-2.524 2.552z" fill="#fff"/></svg>