<svg width="24" height="24" viewBox="0 0 24 24" fill="none" xmlns="http://www.w3.org/2000/svg">
<path d="M18.1328 18.2422C18.25 18.3594 18.25 18.5547 18.1328 18.6719C18.0156 18.7891 17.8203 18.7891 17.7031 18.6719L12 12.9688L6.25781 18.6719C6.14062 18.7891 5.94531 18.7891 5.82812 18.6719C5.71094 18.5547 5.71094 18.3594 5.82812 18.2422L11.5312 12.5L5.82812 6.79688C5.71094 6.67969 5.71094 6.48438 5.82812 6.36719C5.94531 6.25 6.14062 6.25 6.25781 6.36719L12 12.0703L17.7031 6.36719C17.8203 6.25 18.0156 6.25 18.1328 6.36719C18.25 6.48438 18.25 6.67969 18.1328 6.79688L12.4297 12.5L18.1328 18.2422Z" fill="#0F1015"/>
</svg>
