<svg width="24" height="24" viewBox="0 0 24 24" fill="none" xmlns="http://www.w3.org/2000/svg">
<path d="M20.75 12.5C20.75 12.8516 20.4375 13.125 20.0859 13.125H5.35938L10.8281 18.9844C11.0625 19.2188 11.0625 19.6094 10.7891 19.8438C10.6719 19.9609 10.5156 20 10.3594 20C10.1641 20 10.0078 19.9609 9.89062 19.8047L3.40625 12.9297C3.17188 12.6953 3.17188 12.3438 3.40625 12.1094L9.89062 5.23438C10.125 4.96094 10.5156 4.96094 10.7891 5.19531C11.0625 5.42969 11.0625 5.82031 10.8281 6.05469L5.35938 11.875H20.0859C20.4375 11.875 20.75 12.1875 20.75 12.5Z" fill="#0F1015"/>
</svg>
