<svg width="24" height="24" viewBox="0 0 24 24" fill="none" xmlns="http://www.w3.org/2000/svg">
<path d="M3.25 5.9375C3.25 5.78125 3.36719 5.625 3.5625 5.625H20.4375C20.5938 5.625 20.75 5.78125 20.75 5.9375C20.75 6.13281 20.5938 6.25 20.4375 6.25H3.5625C3.36719 6.25 3.25 6.13281 3.25 5.9375ZM3.25 12.1875C3.25 12.0312 3.36719 11.875 3.5625 11.875H20.4375C20.5938 11.875 20.75 12.0312 20.75 12.1875C20.75 12.3828 20.5938 12.5 20.4375 12.5H3.5625C3.36719 12.5 3.25 12.3828 3.25 12.1875ZM20.4375 18.75H3.5625C3.36719 18.75 3.25 18.6328 3.25 18.4375C3.25 18.2812 3.36719 18.125 3.5625 18.125H20.4375C20.5938 18.125 20.75 18.2812 20.75 18.4375C20.75 18.6328 20.5938 18.75 20.4375 18.75Z" fill="#0F1015"/>
</svg>
